<?xml version="1.0" encoding="UTF-8"?>
<svg version="1.1" xmlns="http://www.w3.org/2000/svg" width="198" height="198">
<path d="M0 0 C16.43557678 14.44561905 25.64253026 32.55792357 27.203125 54.40625 C27.56909279 75.14442487 20.52462151 94.12142816 6.265625 109.25390625 C5.51796875 110.01574219 4.7703125 110.77757812 4 111.5625 C3.39671875 112.19027344 2.7934375 112.81804687 2.171875 113.46484375 C-11.37506335 126.45223464 -30.652916 131.7125784 -49 131.5625 C-70.17408866 130.64776274 -88.6755079 121.77518137 -103.1875 106.3125 C-118.52034889 88.22839395 -121.60724625 67.46229511 -120 44.5625 C-117.24359714 25.87908796 -106.06537764 8.75850253 -91 -2.4375 C-62.65331183 -20.96141493 -27.00746178 -21.38871106 0 0 Z M-80 5.5625 C-80 5.8925 -80 6.2225 -80 6.5625 C-67.39401551 9.4596346 -54.93746691 9.87245589 -42.0625 9.875 C-41.26244537 9.87822266 -40.46239075 9.88144531 -39.63809204 9.88476562 C-30.2308578 9.90785883 -21.24383254 9.54372629 -12 7.5625 C-20.60815692 -1.36493235 -34.62246608 -3.83910472 -46.5 -4.6875 C-59.01693017 -4.42169646 -69.30405694 -0.45293793 -80 5.5625 Z M-97.66015625 21.19140625 C-99.18921499 23.89734986 -100.10900795 26.59110547 -101 29.5625 C-97.87605609 30.39982743 -94.75068026 31.23167982 -91.625 32.0625 C-90.29082031 32.42021484 -90.29082031 32.42021484 -88.9296875 32.78515625 C-88.07890625 33.01074219 -87.228125 33.23632812 -86.3515625 33.46875 C-85.56604004 33.67822266 -84.78051758 33.88769531 -83.97119141 34.10351562 C-82.01267171 34.63809321 -82.01267171 34.63809321 -80 34.5625 C-80.18175781 35.39386475 -80.36351563 36.22522949 -80.55078125 37.08178711 C-81.22909626 40.20573209 -81.89899324 43.3313381 -82.56347656 46.45825195 C-82.85119864 47.80401241 -83.14213981 49.14908924 -83.43652344 50.4934082 C-86.84111973 63.5755167 -86.84111973 63.5755167 -84.3125 76.375 C-80.51415362 81.61055852 -76.36736085 84.84415405 -69.89672852 85.90844727 C-67.43359834 86.20715487 -64.97040128 86.45672745 -62.5 86.6875 C-61.23736328 86.81705078 -61.23736328 86.81705078 -59.94921875 86.94921875 C-55.94344511 87.34664196 -52.02895215 87.60413605 -48 87.5625 C-48.21205078 88.43052246 -48.42410156 89.29854492 -48.64257812 90.19287109 C-49.42712091 93.40906546 -50.2096174 96.62574324 -50.99072266 99.84277344 C-51.32941897 101.23587717 -51.66893332 102.62878227 -52.00927734 104.02148438 C-52.49791453 106.02162027 -52.98361983 108.0224485 -53.46875 110.0234375 C-53.76201172 111.22790527 -54.05527344 112.43237305 -54.35742188 113.67333984 C-55.07236838 116.39459015 -55.07236838 116.39459015 -55 118.5625 C-50.90274731 119.60417441 -47.38504776 119.50659525 -43.1875 119.125 C-41.54841675 118.97599243 -41.54841675 118.97599243 -39.8762207 118.82397461 C-38.45249146 118.69454468 -38.45249146 118.69454468 -37 118.5625 C-34.20207996 108.41802872 -31.74229682 98.24087834 -29.546875 87.94921875 C-29.23897145 86.51807593 -28.93079939 85.08699085 -28.62237549 83.65596008 C-27.98488648 80.69438584 -27.34984754 77.73230145 -26.71679688 74.76977539 C-25.90483371 70.97045495 -25.08767276 67.17227491 -24.26887131 63.37442303 C-23.63587614 60.43663478 -23.00498079 57.49839893 -22.37479401 54.5600071 C-22.07388136 53.15763076 -21.77244756 51.75536614 -21.47048187 50.35321617 C-21.0521581 48.40868888 -20.63684224 46.46351522 -20.22167969 44.51831055 C-19.98503601 43.41327682 -19.74839233 42.3082431 -19.50457764 41.16972351 C-18.93666496 38.67783902 -18.93666496 38.67783902 -19 36.5625 C-17.845 36.52125 -16.69 36.48 -15.5 36.4375 C-9.33373423 35.64079663 -5.20395638 32.2266793 -1.31640625 27.52734375 C0.66184925 24.70391037 0.66184925 24.70391037 2 21.5625 C1.56398028 19.30491799 1.56398028 19.30491799 0 17.5625 C-3.72819002 16.08360543 -6.91739437 16.78306296 -10.77124023 17.54248047 C-34.72689188 22.19893635 -60.68146868 20.69041833 -84.4609375 15.859375 C-91.03658963 14.76637116 -93.54974034 15.87500034 -97.66015625 21.19140625 Z M8 32.5625 C6.82411341 34.00716066 5.64968276 35.45304268 4.484375 36.90625 C1.31246339 40.44543559 -2.4352777 43.12413422 -7.01171875 44.40625 C-12.03490562 48.03082405 -12.20123674 53.52531501 -13.375 59.375 C-13.6567439 60.68618249 -13.94073006 61.99688491 -14.22680664 63.30712891 C-15.00929913 66.92295652 -15.75898248 70.54495144 -16.50408936 74.16864014 C-17.39124058 78.45109652 -18.3093574 82.72696524 -19.22265625 87.00390625 C-21.17796122 96.18402267 -23.09811662 105.37118111 -25 114.5625 C-13.25742816 112.48414699 -3.046141 102.88100396 3.6875 93.4375 C11.98814001 81.2756476 16.57591368 66.33900828 15 51.5625 C13.75902822 45.13744333 12.06861002 38.76833007 10 32.5625 C9.34 32.5625 8.68 32.5625 8 32.5625 Z M-106 39.5625 C-111.02124329 54.1441905 -108.88052435 70.64436651 -102.71484375 84.4375 C-99.20893721 91.4688446 -94.52845023 97.0242649 -89 102.5625 C-88.44699219 103.12710938 -87.89398438 103.69171875 -87.32421875 104.2734375 C-81.63078763 109.6136781 -72.87569498 115.5625 -65 115.5625 C-64.49309416 113.50168639 -63.99475381 111.43876474 -63.5 109.375 C-63.2215625 108.22644531 -62.943125 107.07789063 -62.65625 105.89453125 C-62.08504615 102.99431171 -61.86716221 100.50153615 -62 97.5625 C-62.60585937 97.45292969 -63.21171875 97.34335938 -63.8359375 97.23046875 C-85.40294319 93.14932767 -85.40294319 93.14932767 -91.5703125 84.3125 C-99.23328491 71.00082221 -95.28394156 57.70983753 -92 43.5625 C-93.2590707 43.07334423 -94.51982133 42.5885113 -95.78125 42.10546875 C-96.48314453 41.83500732 -97.18503906 41.5645459 -97.90820312 41.28588867 C-100.56891051 40.36575842 -103.21143401 39.91107075 -106 39.5625 Z " fill="#67CBFC" transform="translate(146,41.4375)"/>
<path d="M0 0 C5.27713175 4.09246952 10.11852641 8.54000304 14.87109375 13.2265625 C16.07765625 14.41378906 16.07765625 14.41378906 17.30859375 15.625 C35.8085701 34.96004472 42.54021408 59.78707886 42.34350586 85.9597168 C42.10460945 95.54486563 40.91323406 104.14752692 37.87109375 113.2265625 C37.55760986 114.18127441 37.55760986 114.18127441 37.23779297 115.15527344 C32.39889539 129.54510368 24.42561899 141.35814803 13.87109375 152.2265625 C13.04738281 153.14308594 13.04738281 153.14308594 12.20703125 154.078125 C-2.5978462 170.04988934 -25.69004396 179.87034875 -47.15942383 181.44946289 C-76.36376443 182.51491161 -102.35022804 175.84983891 -124.37890625 155.9140625 C-142.95469053 138.35571213 -155.5246515 115.42174738 -156.3671875 89.48828125 C-156.86876761 59.93779023 -149.36263052 34.58897421 -128.77148438 12.77758789 C-95.36606342 -21.26178161 -39.21485276 -27.56213532 0 0 Z M-112.12890625 14.2265625 C-113.49789062 15.33451172 -113.49789062 15.33451172 -114.89453125 16.46484375 C-130.67482727 29.93099021 -141.55396171 49.52983846 -144.12890625 70.2265625 C-145.63359086 96.46041151 -140.87210814 117.56123261 -124.12890625 138.2265625 C-123.5153125 139.00386719 -122.90171875 139.78117188 -122.26953125 140.58203125 C-108.93155403 156.59311547 -89.33090691 165.61264905 -69.12890625 169.2265625 C-44.16395768 170.98226991 -20.58100913 166.05696542 -0.921875 149.6171875 C16.08055476 134.7840972 28.09039085 114.90818031 30.14892578 92.15576172 C31.67377289 66.75310826 25.95821801 43.92267866 8.984375 24.515625 C7.93830078 23.38253906 7.93830078 23.38253906 6.87109375 22.2265625 C6.28714844 21.57429688 5.70320312 20.92203125 5.1015625 20.25 C-8.54704385 5.73836702 -30.57203927 -4.32405219 -50.40234375 -5.01171875 C-73.37517325 -5.43218337 -94.10821254 -0.76337817 -112.12890625 14.2265625 Z " fill="#67CBFC" transform="translate(156.12890625,16.7734375)"/>
<path d="M0 0 C7.69494712 0.022467 15.32025632 0.50593747 22.98828125 1.1328125 C22.45340448 8.52771218 21.14291248 15.55259519 19.42578125 22.7578125 C19.19181641 23.76199219 18.95785156 24.76617187 18.71679688 25.80078125 C18.14620826 28.24616104 17.56996692 30.69005319 16.98828125 33.1328125 C13.92482981 33.24104042 10.86522115 33.32022729 7.80078125 33.3828125 C6.93646484 33.41632813 6.07214844 33.44984375 5.18164062 33.484375 C1.05192424 33.54766567 -1.39623714 33.47641043 -5.0625 31.4296875 C-7.29371203 28.80052383 -7.61311748 27.51495801 -8.01171875 24.1328125 C-7.68212891 21.46972656 -7.68212891 21.46972656 -7.05078125 18.6484375 C-6.71433594 17.12283203 -6.71433594 17.12283203 -6.37109375 15.56640625 C-6.12875 14.51582031 -5.88640625 13.46523437 -5.63671875 12.3828125 C-5.40210937 11.31675781 -5.1675 10.25070313 -4.92578125 9.15234375 C-2.91696719 0.19257647 -2.91696719 0.19257647 0 0 Z M6.98828125 11.1328125 C6.48460368 12.58987976 5.98545569 14.04851346 5.48828125 15.5078125 C5.20984375 16.31992188 4.93140625 17.13203125 4.64453125 17.96875 C3.8915482 20.07490492 3.8915482 20.07490492 3.98828125 22.1328125 C5.30828125 22.1328125 6.62828125 22.1328125 7.98828125 22.1328125 C9.18115536 18.25597163 9.98828125 15.21659327 9.98828125 11.1328125 C8.99828125 11.1328125 8.00828125 11.1328125 6.98828125 11.1328125 Z " fill="#67CBFC" transform="translate(87.01171875,78.8671875)"/>
<path d="M0 0 C1.32 0 2.64 0 4 0 C4 1.65 4 3.3 4 5 C2.35 4.67 0.7 4.34 -1 4 C-0.67 2.68 -0.34 1.36 0 0 Z " fill="#5DD1F6" transform="translate(30,166)"/>
<path d="M0 0 C1.98 0.66 3.96 1.32 6 2 C5.67 2.99 5.34 3.98 5 5 C3.35 5 1.7 5 0 5 C0 3.35 0 1.7 0 0 Z " fill="#5DCFF8" transform="translate(46,22)"/>
<path d="M0 0 C-0.33 1.32 -0.66 2.64 -1 4 C-3.31 4.66 -5.62 5.32 -8 6 C-3.38461538 0 -3.38461538 0 0 0 Z " fill="#73C8F0" transform="translate(54,42)"/>
<path d="M0 0 C2.475 0.99 2.475 0.99 5 2 C5 2.99 5 3.98 5 5 C3.35 5 1.7 5 0 5 C0 3.35 0 1.7 0 0 Z " fill="#5BD0FC" transform="translate(166,29)"/>
</svg>
